<?xml version="1.0" encoding="utf-8"?>
<!-- Generator: Adobe Illustrator 21.0.1, SVG Export Plug-In . SVG Version: 6.00 Build 0)  -->
<svg version="1.1" id="Layer_1" xmlns="http://www.w3.org/2000/svg" xmlns:xlink="http://www.w3.org/1999/xlink" x="0px" y="0px"
	 viewBox="0 0 400 79.5" style="enable-background:new 0 0 400 79.5;" xml:space="preserve">
<polygon points="140.7,10.2 156.6,10.2 163.5,57 163.7,57 168.4,10.2 185.5,10.2 173.9,77.8 154.6,77.8 148.7,32.3 148.5,32.3 
	142.7,77.8 123.4,77.8 111.8,10.2 128.8,10.2 134.1,57 134.3,57 "/>
<g>
	<path d="M208,67.2c5.4,0,6-4.9,6-23.2c0-18.3-0.6-23.2-6-23.2s-6,4.9-6,23.2C202.1,62.3,202.6,67.2,208,67.2 M208,8.9
		c18,0,24.2,9.8,24.2,35.1c0,25.3-6.2,35.1-24.2,35.1c-18,0-24.2-9.8-24.2-35.1C183.9,18.7,190,8.9,208,8.9"/>
</g>
<polygon points="234.1,10.2 259.3,10.2 266.4,50.2 266.5,50.2 273.7,10.2 298.8,10.2 298.8,77.8 282.4,77.8 282.4,27.4 282.2,27.4 
	272.8,77.8 260.1,77.8 250.7,27.4 250.5,27.4 250.5,77.8 234.1,77.8 "/>
<path d="M325,24h-0.2L320,52.7h9.8L325,24z M313.8,10.2H336l16.5,67.6h-18.8L331.9,66h-14l-1.8,11.8h-18.8L313.8,10.2z"/>
<polygon points="383.1,9.6 383.1,51.6 382.9,51.6 371.5,9.6 351.6,9.6 351.6,77.8 368.2,77.8 368.2,35.7 368.4,35.7 380.2,77.8 
	400,77.8 400,9.6 "/>
<g>
	<path d="M110.2,77.4H65.4V71c19.6-21.8,27.7-31,27.7-41.4c0-6.6-2.7-11.9-9.6-10.7c-5,0.8-10.9,3.6-17.9,12.2V9.9
		C74.9,2.3,81.9,0,89.2,0.9c16,2,21.2,13.5,21.7,22.7c0.5,9.5-1.3,21.7-13.5,36.4h12.8V77.4z"/>
</g>
<polygon points="47,9.1 31.5,36.8 15.9,9.1 0,9.1 0,77.5 17.8,77.5 17.4,40.8 17.5,40.6 31.5,65.6 45.4,40.6 45.6,40.8 45.1,77.5 
	63.4,77.5 63.4,9.1 "/>
</svg>
